<svg width="190" height="40" viewBox="0 0 190 40" fill="none" xmlns="http://www.w3.org/2000/svg">
<path d="M20.7568 29.6738C20.7568 28.2904 20.2686 27.2324 19.292 26.5C18.3154 25.7513 16.5576 24.9701 14.0186 24.1562C11.4795 23.3262 9.4694 22.5124 7.98828 21.7148C3.95182 19.5339 1.93359 16.596 1.93359 12.9014C1.93359 10.9808 2.4707 9.27181 3.54492 7.77441C4.63542 6.26074 6.18978 5.08073 8.20801 4.23438C10.2425 3.38802 12.5212 2.96484 15.0439 2.96484C17.583 2.96484 19.8454 3.42871 21.8311 4.35645C23.8167 5.2679 25.3548 6.56185 26.4453 8.23828C27.5521 9.91471 28.1055 11.819 28.1055 13.9512H20.7812C20.7812 12.3236 20.2686 11.0622 19.2432 10.167C18.2178 9.25553 16.7773 8.7998 14.9219 8.7998C13.1315 8.7998 11.7399 9.18229 10.7471 9.94727C9.75423 10.696 9.25781 11.6888 9.25781 12.9258C9.25781 14.0814 9.83561 15.0498 10.9912 15.8311C12.1631 16.6123 13.8802 17.3447 16.1426 18.0283C20.3092 19.2816 23.3447 20.8359 25.249 22.6914C27.1533 24.5469 28.1055 26.8581 28.1055 29.625C28.1055 32.7012 26.9417 35.1182 24.6143 36.876C22.2868 38.6175 19.1536 39.4883 15.2148 39.4883C12.4805 39.4883 9.99023 38.9919 7.74414 37.999C5.49805 36.9899 3.78092 35.6146 2.59277 33.873C1.4209 32.1315 0.834961 30.1133 0.834961 27.8184H8.18359C8.18359 31.7409 10.5273 33.7021 15.2148 33.7021C16.9564 33.7021 18.3154 33.3522 19.292 32.6523C20.2686 31.9362 20.7568 30.9434 20.7568 29.6738ZM39.5068 15.4648C41.3786 13.2188 43.7305 12.0957 46.5625 12.0957C52.2917 12.0957 55.1969 15.4242 55.2783 22.0811V39H48.2227V22.2764C48.2227 20.7627 47.8971 19.6478 47.2461 18.9316C46.5951 18.1992 45.5127 17.833 43.999 17.833C41.932 17.833 40.4346 18.6305 39.5068 20.2256V39H32.4512V1.5H39.5068V15.4648ZM72.7588 39.4883C68.8851 39.4883 65.7275 38.3001 63.2861 35.9238C60.861 33.5475 59.6484 30.3818 59.6484 26.4268V25.7432C59.6484 23.0902 60.1611 20.722 61.1865 18.6387C62.2119 16.5391 63.6605 14.9277 65.5322 13.8047C67.4202 12.6654 69.5687 12.0957 71.9775 12.0957C75.5908 12.0957 78.431 13.235 80.498 15.5137C82.5814 17.7923 83.623 21.0231 83.623 25.2061V28.0869H66.8018C67.0296 29.8122 67.7132 31.1956 68.8525 32.2373C70.0081 33.279 71.4648 33.7998 73.2227 33.7998C75.9408 33.7998 78.0648 32.8151 79.5947 30.8457L83.0615 34.7275C82.0036 36.2249 80.5713 37.3968 78.7646 38.2432C76.958 39.0732 74.9561 39.4883 72.7588 39.4883ZM71.9531 17.8086C70.5534 17.8086 69.4141 18.2806 68.5352 19.2246C67.6725 20.1686 67.1191 21.5195 66.875 23.2773H76.6895V22.7158C76.6569 21.1533 76.2337 19.9489 75.4199 19.1025C74.6061 18.2399 73.4505 17.8086 71.9531 17.8086ZM95.0977 39H88.0176V1.5H95.0977V39ZM102.861 39V17.7598H98.9307V12.584H102.861V10.3379C102.861 7.37565 103.708 5.08073 105.4 3.45312C107.109 1.80924 109.494 0.987305 112.554 0.987305C113.53 0.987305 114.727 1.15007 116.143 1.47559L116.069 6.94434C115.483 6.79785 114.767 6.72461 113.921 6.72461C111.268 6.72461 109.941 7.96973 109.941 10.46V12.584H115.19V17.7598H109.941V39H102.861Z" fill="#20252F"/>
<path d="M137.749 29.6738C137.749 28.2904 137.261 27.2324 136.284 26.5C135.308 25.7513 133.55 24.9701 131.011 24.1562C128.472 23.3262 126.462 22.5124 124.98 21.7148C120.944 19.5339 118.926 16.596 118.926 12.9014C118.926 10.9808 119.463 9.27181 120.537 7.77441C121.628 6.26074 123.182 5.08073 125.2 4.23438C127.235 3.38802 129.513 2.96484 132.036 2.96484C134.575 2.96484 136.838 3.42871 138.823 4.35645C140.809 5.2679 142.347 6.56185 143.438 8.23828C144.544 9.91471 145.098 11.819 145.098 13.9512H137.773C137.773 12.3236 137.261 11.0622 136.235 10.167C135.21 9.25553 133.77 8.7998 131.914 8.7998C130.124 8.7998 128.732 9.18229 127.739 9.94727C126.746 10.696 126.25 11.6888 126.25 12.9258C126.25 14.0814 126.828 15.0498 127.983 15.8311C129.155 16.6123 130.872 17.3447 133.135 18.0283C137.301 19.2816 140.337 20.8359 142.241 22.6914C144.146 24.5469 145.098 26.8581 145.098 29.625C145.098 32.7012 143.934 35.1182 141.606 36.876C139.279 38.6175 136.146 39.4883 132.207 39.4883C129.473 39.4883 126.982 38.9919 124.736 37.999C122.49 36.9899 120.773 35.6146 119.585 33.873C118.413 32.1315 117.827 30.1133 117.827 27.8184H125.176C125.176 31.7409 127.52 33.7021 132.207 33.7021C133.949 33.7021 135.308 33.3522 136.284 32.6523C137.261 31.9362 137.749 30.9434 137.749 29.6738ZM161.772 39.4883C157.899 39.4883 154.741 38.3001 152.3 35.9238C149.875 33.5475 148.662 30.3818 148.662 26.4268V25.7432C148.662 23.0902 149.175 20.722 150.2 18.6387C151.226 16.5391 152.674 14.9277 154.546 13.8047C156.434 12.6654 158.582 12.0957 160.991 12.0957C164.604 12.0957 167.445 13.235 169.512 15.5137C171.595 17.7923 172.637 21.0231 172.637 25.2061V28.0869H155.815C156.043 29.8122 156.727 31.1956 157.866 32.2373C159.022 33.279 160.479 33.7998 162.236 33.7998C164.954 33.7998 167.078 32.8151 168.608 30.8457L172.075 34.7275C171.017 36.2249 169.585 37.3968 167.778 38.2432C165.972 39.0732 163.97 39.4883 161.772 39.4883ZM160.967 17.8086C159.567 17.8086 158.428 18.2806 157.549 19.2246C156.686 20.1686 156.133 21.5195 155.889 23.2773H165.703V22.7158C165.671 21.1533 165.247 19.9489 164.434 19.1025C163.62 18.2399 162.464 17.8086 160.967 17.8086ZM185.112 6.08984V12.584H189.629V17.7598H185.112V30.9434C185.112 31.9199 185.299 32.6198 185.674 33.043C186.048 33.4661 186.764 33.6777 187.822 33.6777C188.604 33.6777 189.295 33.6208 189.897 33.5068V38.8535C188.514 39.2767 187.09 39.4883 185.625 39.4883C180.677 39.4883 178.154 36.9899 178.057 31.9932V17.7598H174.199V12.584H178.057V6.08984H185.112Z" fill="#5F92F8"/>
</svg>
